<?xml version="1.0" encoding="UTF-8" standalone="no"?>
<svg xmlns="http://www.w3.org/2000/svg" width="410" height="410">
  <path fill="#e12d0e" d="M242.07118 353.14591c7.2601-1.12356 11.2182-2.25599 16.154-4.62166 9.1519-4.38634 16.0089-13.25003 16.5299-21.36712.2148-3.34841.044-4.2591-1.8359-9.78289-2.0296-5.96375-5.834-14.708-10.0293-23.05174-1.1568-2.30071-2.0042-4.28224-1.883-4.40342.3519-.35189 3.9707 3.9648 7.4248 8.85672 4.6407 6.57253 8.0077 13.17366 10.4697 20.52629l2.1703 6.48134 3.7484 1.56049c7.3774 3.07124 12.4695 4.07717 21.8497 4.31629 7.9129.2017 8.8658.12614 13.5164-1.07209 8.9471-2.30522 15.6742-6.19691 21.8182-12.62202 4.3665-4.56617 6.2462-7.41718 8.8582-13.43556 2.9211-6.73038 4.2977-8.98848 7.6013-12.46839 3.6076-3.8001 7.1901-6.31745 15.8091-11.10866 14.9243-8.29627 19.842-12.72808 23.7933-21.44259 2.7556-6.07733 3.2287-8.78171 3.2084-18.34281-.021-9.83296-.7614-14.29237-3.9766-23.94338-2.8148-8.44955-8.0169-18.38357-11.6525-22.25213-1.4682-1.56218-3.7427-1.83009-5.4406-.64077-1.6455 1.15255-3.9139 5.03043-6.6032 11.28833-5.7935 13.48113-17.3119 38.26305-16.8715 36.2991.1234-.55084 1.5749-6.86047 3.2254-14.02141 3.6764-15.95028 4.2627-20.19446 3.9085-28.29317-.5654-12.92499-4.0515-23.17734-12.9595-38.11309-6.0257-10.10303-10.8589-15.08779-17.6943-18.24927-5.7294-2.64989-10.77-3.82824-16.7207-3.90872l-5.2541-.0711-.653 2.22975c-.3591 1.22632-1.0186 4.71916-1.4654 7.76185-1.1647 7.93016-.7689 13.79872 1.5383 22.80847 2.2886 8.93685 2.6986 13.30547 1.6029 17.07477-.7405 2.54734-3.8825 7.05453-4.5005 6.45596-.1451-.14056.091-2.16866.5255-4.50688 1.1179-6.02119.9383-8.0858-1.611-18.52308-1.2445-5.09528-2.3977-11.0669-2.5626-13.27026-.4882-6.52036.8249-15.60257 4.3795-30.29045 1.7085-7.05983 1.6488-9.05958-.4002-13.40011-2.318-4.91029-9.0135-10.80885-16.5845-14.61055-9.6854-4.86343-23.7156-7.24196-31.4858-5.33775-10.7827 2.64243-17.7153 9.77537-30.0902 30.95991-10.4272 17.85041-16.6585 41.05854-16.0344 59.72023.2342 7.00164.2032 7.35854-.4572 5.25803-2.9538-9.39484-3.4294-16.9652-1.7131-27.26232 2.3539-14.12221 5.5407-23.76919 12.1681-36.83554 6.0668-11.96121 7.0823-15.03461 6.8276-20.6641-.4468-9.87328-5.9745-15.19014-20.6553-19.86753-22.3431-7.11857-48.8008-1.06708-55.5439 12.70419-2.497 5.09949-2.8448 7.82265-3.3627 26.32515-.7533 26.91409-1.1649 32.55144-2.7419 37.55734-2.0919 6.64019-4.5268 10.90064-7.198 12.59468-1.2374.78469-2.7675 1.42673-3.4004 1.42673-1.1179 0-1.1023-.0631.5491-2.2266 4.1483-5.4346 6.2891-17.53077 7.0698-39.94619l.3089-8.872-2.2496-2.40502c-7.6817-8.21234-25.081-12.72854-37.1484-9.64222-7.071503 1.80861-13.246303 6.92237-17.012403 14.08926-5.3807 10.23958-6.3077 20.08617-4.0239 42.74321 1.0731 10.64515 1.1278 12.14709.4795 13.14507-.8665 1.33373-.9546 1.33994-5.4663.38428-1.9279-.40837-5.2383-.74639-7.3566-.75114-2.1182-.005-3.9727-.20517-4.1212-.44528-.1484-.24017.6834-.7834 1.8484-1.2073 1.8452-.67132 3.3465-1.04008 8.7554-2.15063 1.0963-.22509 1.1201-.358.8268-4.60338-.2598-3.76114-.47-4.52571-1.5053-5.47501-2.4103-2.21037-9.2022-2.90648-12.6435-1.29588-2.9277 1.37025-7.2323 6.01924-8.9968 9.71669-2.5486 5.3402-3.2544 8.90725-2.9602 14.96034.3087 6.3497 1.4892 10.02346 7.0015 21.78952 10.2395 21.8561 12.1168 32.68468 7.3279 42.26801-.8213 1.64371-2.2668 3.6676-3.2119 4.49747-1.6136 1.41676-4.9337 2.53752-5.5857 1.88558-.1615-.1615.411-1.09617 1.2722-2.07707 7.4136-8.44359 6.128-20.98524-4.417-43.09077l-3.3548-7.03284-3.9663-.61078c-8.8107-1.35672-16.5455-5.21511-21.4987-10.72418-2.7673-3.0779-4.1363-5.58587-5.2695-9.65288l-.8371-3.00459-3.3047 5.108c-6.3428 9.80417-10.3088998 17.78495-12.1440998 24.43711-.4559 1.65252-.9431 5.48335-1.0827 8.51298-.2311 5.0152-.135 5.86184 1.0733 9.45593 2.1668 6.44489 6.6545998 12.55257 12.8586998 17.49992 1.2677 1.01094 2.5071 1.82769 2.7542 1.81492.247-.013 1.1252-.8835 1.9515-1.93495.8262-1.05146 2.8632-2.98155 4.5267-4.2891 3.021-2.37478 8.7435-5.96946 8.7435-5.49249 0 .13877-1.2076 1.67586-2.6836 3.41572-6.5703 7.74502-8.7944 12.26252-9.2093 18.70546-.8199 12.73339 8.3875 26.06359 20.5554 29.75948 2.8639.86988 4.3478 1.00779 8.7842.81635 9.1883-.3964 14.1377-3.0485 24.4778-13.11633 3.9327-3.82924 7.1505-6.82346 7.1505-6.6539 0 .1695-.483 1.59909-1.0733 3.1768-1.409 3.7659-3.7554 7.68738-6.9778 11.66175l-2.6152 3.22548 1.5697 4.78675c3.7355 11.3908 10.0403 17.92562 20.6978 21.45276 6.697003 2.21638 12.117903 2.81274 21.950003 2.41478 10.5731-.42795 16.8434-1.30494 16.5989-2.32164-1.0741-4.46632-.2358-17.69251 1.5067-23.76989l.5743-2.00306.3892 1.50229c.2141.82627.7428 5.67822 1.175 10.78217.4321 5.10389 1.1313 10.60649 1.5537 12.22792 1.9677 7.55453 7.7484 14.40384 15.5488 18.42302 6.8914 3.55077 12.9785 5.01942 21.075 5.08477 3.6259.029 6.7165-.0704 6.8681-.22144.1515-.15103-.2933-1.68297-.9886-3.4043-2.1692-5.3705-2.7288-9.50471-2.9587-21.86002-.2428-13.04763-.4348-13.22144 3.0425 2.7542 2.2487 10.33067 4.2704 16.52223 6.4974 19.89848 4.1745 6.32856 14.0426 11.62104 25.984 13.93568 4.3206.83748 18.8271.56721 25.5706-.47638zm-80.5553-43.76647c-4.5452-7.19999-6.8791-20.73861-5.3628-31.1086.3338-2.28258.5029-4.25409.3758-4.38114-.6589-.659-8.833-2.27051-14.0589-2.77168-12.9747-1.24445-20.6834.98766-31.4378 9.10295l-1.6501 1.24515 1.2274-1.74591c.675-.96027 2.8866-3.62038 4.9146-5.91138 5.6891-6.42711 7.2944-10.81531 6.1272-16.74867-.7625-3.87532-2.4853-7.31322-4.85-9.67788-2.157-2.15704-7.6124-4.8489-12.19-6.01503-4.1623-1.06032-11.409303-.69221-15.953103.81039-1.7509.57903-3.2761.96026-3.3892.84719-.3064-.30642 3.6106-2.93113 6.5074-4.36056 1.9146-.94469 2.639-1.62057 2.9522-2.7542.6179-2.23637.064-5.99095-1.335-9.04642-1.2101-2.64328-5.8754-7.85842-9.0632-10.13154l-1.5023-1.07124 1.5475-.016c2.1169-.0215 6.9267 2.48108 10.0641 5.23682 3.5037 3.07755 5.2461 6.70203 5.5579 11.56155l.238603 3.71708h1.8452c9.3985 0 19.0135 5.93631 23.0989 14.26127 1.6026 3.26559 1.7125 3.80747 1.6751 8.26262-.027 3.17134-.3218 5.50655-.8817 6.97415-.4629 1.2135-.7734 2.27467-.6898 2.3582.083.0835 1.4943-.2264 3.1351-.68876 4.7478-1.33779 19.581-1.17314 25.432.28239 2.4317.60487 4.5115 1.09982 4.6219 1.09982.1103 0 .6834-.95771 1.2734-2.12824 3.264-6.47569 8.9243-12.17304 15.5568-15.65831l3.4668-1.82173-3.5256-2.47593c-8.5723-6.02004-15.2976-18.06544-17.8656-31.99834-.6516-3.53504-.8773-7.39469-.8785-15.02293 0-12.57911 1.0757-21.35371 4.9619-40.40294 4.2571-20.86701 5.8219-25.75167 9.2749-28.95296 1.6142-1.49653 1.6191-1.49748 1.2762-.25038-1.228 4.46642-6.4931 27.61131-7.7462 34.05199-2.9211 15.01317-3.3028 18.77962-3.2982 32.5497 0 14.33589.5828 18.37726 3.9956 27.93182 2.6109 7.30956 8.4224 15.21699 13.6411 18.56049 2.9473 1.88834 9.9495 4.25179 15.8931 5.36444 4.8942.9162 15.8679.78205 19.2843-.23581 1.0826-.32254 3.0056-1.79434 5.0076-3.8329 5.4606-5.55994 9.3428-7.77387 20.2761-11.56305 1.928-.66817 6.0968-1.66129 9.2642-2.20687 9.6552-1.66329 14.1777-4.42481 17.2263-10.51866 3.9962-7.98803 4.1697-14.57554.8245-31.30899-1.1065-5.5346-2.2166-12.42221-2.467-15.30571-.4978-5.73361.01-12.89074 1.0973-15.5504.6406-1.56288.6923-1.35767 1.0244 4.07007.6617 10.81326 2.7792 22.99921 5.8376 33.59404 3.5444 12.27835 1.973 23.2818-4.4826 31.38965l-1.9997 2.51159 4.9393.59861c12.9486 1.56935 20.7409 5.13239 25.769 11.78294l1.4484 1.91583 3.8096-.33867c8.6156-.76592 14.0516-3.14946 19.3731-8.49452 6.2385-6.26602 9.4599-13.25068 11.9198-25.84479.7263-3.71817 1.6158-9.68979 1.9767-13.27026l.6561-6.50994.6911 2.25344c.4566 1.48888.6732 4.54715.6385 9.01376-.1657 21.29119-8.4313 38.49336-21.4482 44.63759-2.8218 1.33193-8.4611 2.93723-12.929 3.68047-1.6619.27642-1.8959.47307-1.684 1.41531.1353.60182.627 2.7843 1.0928 4.84995.64 2.83869.9547 7.91303 1.2886 20.78173.433 16.67977.9684 21.95502 2.5238 24.86121.2984.55765.4479 1.10869.3321 1.22452-.3961.39605-1.789-1.54761-3.801-5.304-2.4781-4.62636-2.8741-7.24902-3.5798-23.70624-.6919-16.13404-1.9272-21.79994-5.9901-27.47375-3.6897-5.15262-9.3651-7.96296-19.5062-9.65905-7.1841-1.20153-21.9169-.84374-27.9228.67814-10.2511 2.59751-15.9292 5.40946-21.3813 10.58841-7.6159 7.23435-11.0329 16.92915-9.1403 25.93325 1.3683 6.50964 7.9752 17.99267 16.0501 27.89574 5.0855 6.23682 5.2994 6.56542 3.7267 5.72539-.6529-.34878-4.5761-4.03311-8.718-8.1874-6.0212-6.03907-8.1473-8.55716-10.6056-12.56093-3.2556-5.30224-5.3503-10.72572-5.9021-15.28093-.4089-3.376.3939-9.51172 1.7491-13.36746.5538-1.5758 1.007-2.87288 1.007-2.8824 0-.01-3.4365-.0391-7.6367-.0654-5.1348-.032-8.8368-.31934-11.3-.87634-5.3354-1.20649-7.8901-1.06647-12.0821.66211-10.3605 4.27233-15.3899 9.64423-18.5172 19.77815-.6567 2.128-1.1902 5.55028-1.3663 8.76338-.3361 6.13547.5468 20.34461 1.5564 25.04729.3838 1.78763.618 3.32999.5205 3.42749-.098.0975-.7427-.71835-1.4337-1.81302zm178.3825-37.88895c-1.83-.38203-4.8994-1.35512-6.821-2.1625-3.3322-1.40004-12.1358-5.99976-12.1358-6.34073 0-.0891 2.6026.58805 5.7836 1.50474 10.6838 3.07896 18.7079 3.44386 26.6803 1.21346 9.6597-2.70253 16.372-7.88013 27.2661-21.03201 3.308-3.9936 6.2301-7.48643 6.4936-7.76185 1.001-1.0465-6.3465 13.17416-8.451 16.35632-5.648 8.54024-13.5915 14.72613-22.3158 17.37808-4.4573 1.35487-12.1651 1.74937-16.5.84449zm-215.018-42.82503c-11.1227-8.32802-18.5905-16.76012-22.8013-25.74579-2.914103-6.2186-3.630403-9.90002-3.324203-17.08604.3009-7.06519 1.294103-10.75722 5.538103-20.58713 2.4217-5.60937 3.4067-8.79238 5.174-16.71983.2661-1.19327.3224-1.15812 1.2039.75115 1.6572 3.58913 1.2996 8.52456-1.1064 15.27332-5.4358 15.24713-6.4846 22.21016-4.5253 30.04587 2.6905 10.76008 10.4447 21.33953 24.0064 32.75314 2.2602 1.9021 4.1093 3.71612 4.1093 4.03115 0 .72276-1.031 1.77456-1.7395 1.77456-.2957 0-3.2365-2.02068-6.535-4.4904zm278.6955-25.6225c3.3319-11.7568.7553-22.2318-7.0784-28.77669l-2.056-1.71777-1.9169 1.73179c-3.0822 2.78455-6.9401 2.98696-13.9951.73422l-3.7557-1.19923 6.4879-.14091c7.5943-.16496 7.9504-.34844 8.8252-4.54715.7183-3.44761.2656-11.87888-.8371-15.5923-.8782-2.95707-3.916-6.58761-6.6917-7.99726-2.8392-1.442-9.9199-3.52093-11.9918-3.52093-1.7391 0-2.0347.21288-3.4448 2.48134-1.8745 3.01545-4.8046 4.93518-10.4667 6.85762-2.2908.77779-4.165 1.57435-4.165 1.7702 0 .1958 1.3149 2.45225 2.922 5.01431 1.6071 2.56206 3.786 6.23567 4.8421 8.16361 1.0561 1.92795 1.9609 3.56555 2.0107 3.63911.05.0736 1.4069-.65881 3.0155-1.62749 1.6087-.96868 3.2014-1.76124 3.5393-1.76124.338 0 1.006-.15022 1.4845-.33386.4937-.18948-.2451 1.12107-1.7087 3.03058-1.4183 1.85048-2.7166 3.91393-2.8852 4.5855-.4468 1.78017-.034 4.40718 1.4864 9.47502.741 2.46867 1.5879 6.63753 1.8821 9.26414.8717 7.78499.7322 7.5624 2.6955 4.30207 3.7028-6.14924 6.2761-8.46182 10.095-9.0725 5.4652-.87393 11.4924 5.51632 16.9493 17.97049l1.9359 4.41829.8882-1.73109c.4884-.95215 1.3585-3.39108 1.9335-5.41987zm-353.278303 1.69453c-1.9751-5.11611-2.4673-14.88658-1.0531-20.90692 2.0384-8.67775 7.806-16.69729 14.1446-19.66693 2.5636-1.20113 3.5155-1.36518 7.9214-1.36518 2.7542 0 5.6837.17487 6.5099.38854l1.5023.38855-.1601-8.65116c-.3047-16.46845 2.1491-26.46686 8.5017-34.64174l2.3519-3.02657-2.2798-.86542c-2.7432-1.04129-5.9721-3.2074-6.385-4.28329-.1648-.42936-.2379-.82777-.1626-.88546.075-.0576 3.2078.34854 6.9611.90258l6.824 1.00734 3.3648-1.84947c1.850603-1.01721 4.751403-2.17648 6.446203-2.57614 3.9254-.92571 15.4918-.94449 19.745-.0321 3.017.64719 3.1725.63202 3.8809-.37943 2.071-2.95671-.3691-6.08854-5.7999-7.44416-1.7749-.44303-5.1424-1.28361-7.4835-1.86795-2.3411-.58434-6.9014-2.31874-10.1341-3.85419-4.7591-2.2605-6.903103-2.96938-11.267203-3.72534-12.7038-2.20066-20.1212-.68599-26.5242 5.41622-3.9437 3.75854-6.6021 8.39687-9.6668 16.86676-5.1433 14.21425-7.1692 16.58727-19.2322 22.52694-8.6845 4.27608-11.7474 6.74475-14.0905 11.35689-2.0046 3.94592-2.7156 7.1404-2.7204 12.22396-.01 3.76665 1.1814 13.12394 1.7318 13.67433.089.0884.7604-1.1493 1.4931-2.7506.7326-1.60134 2.9529-5.69299 4.9338-9.09263 2.6293-4.51229 3.646-5.88944 3.7659-5.10074.2142 1.40895-1.6672 7.56751-3.2896 10.76849-1.9253 3.79855-3.6112 9.1045-4.1796 13.15379-1.2613 8.98591 2.8302 16.87065 11.1013 21.39306 3.1422 1.71812 9.4659 3.70851 11.9062 3.74742 1.4011.0225 1.6247-.11908 1.3427-.8495zm-4.6286-61.91553c9.8134-3.28642 10.7772-4.28169 11.3628-11.73406.3534-4.49782.5979-5.41117 2.2295-8.32872 1.0079-1.80225 1.8779-3.2761 1.9332-3.2752.055 0 .1007 4.26571.1007 9.47737 0 8.83719-.071 9.57106-1.0497 10.88998-2.7046 3.64371-7.5663 5.18381-16.2267 5.14029l-4.7572-.024 6.4074-2.14578zm310.083703 7.1713c6.4728-3.77151 8.0751-6.37108 7.6436-12.40143-.4461-6.23507-4.3796-11.77488-10.278-14.47526-2.8231-1.29247-11.7625-3.09071-15.5036-3.11871-2.0297-.015-2.1179.0501-2.4479 1.80912-.1882 1.00368-.2148 3.96224-.059 6.57458l.2834 4.74976-1.6387-2.44329c-3.3962-5.06333-4.7384-11.43931-3.0822-14.6419.7355-1.42242 6.1641-5.37636 6.6771-4.86333.158.15795.045 1.0757-.2506 2.03947-.2957.96372-.5025 1.75307-.4594 1.75413.043 0 2.8884.55239 6.3229 1.22512 3.4346.67277 6.3274 1.14049 6.4285 1.03933.3802-.38023-1.0597-6.09826-2.0037-7.95664-2.0698-4.07478-7.0962-7.68969-15.2973-11.0015-3.9591-1.59879-13.6667-4.08884-28.6622-7.35208-6.4664-1.40719-11.8559-2.6573-11.9765-2.77799-.1207-.12068 4.5503-.21943 10.38-.21943 8.6245 0 10.5995-.12745 10.5995-.68385 0-.37612-.7951-2.27337-1.767-4.21603-3.1389-6.27423-8.7063-10.8694-15.7926-13.03486-3.9904-1.21936-11.2312-1.84616-15.7442-1.36288-2.8423.30442-3.2731.47713-2.9649 1.18872.1983.4579.4666 2.24327.5962 3.96751.2181 2.90233.3334 3.15546 1.554 3.41191 1.5759.33105 13.8075 5.07339 15.5902 6.04457l1.252.682-1.252-.25755c-6.1736-1.26994-18.5423-2.74975-22.963-2.74729-12.1824.007-24.4282 3.30379-30.3559 8.17298l-1.4898 1.22376-2.0369-3.57365c-1.1203-1.96555-3.0026-5.37621-4.1831-7.57927l-2.1463-4.00557 4.3177 4.42691c2.443 2.50482 4.58 4.29971 4.9218 4.13396.3323-.16104 1.6701-1.06282 2.9731-2.00391 4.5608-3.29408 14.3743-5.75734 23.0605-5.78834 5.4704-.0195 5.7289-.18778 5.1367-3.34435-1.0277-5.47832-14.9776-13.71228-27.0608-15.97278-6.8834-1.28777-17.5928-.82842-23.2856.99877-4.3708 1.40289-9.8771 4.15815-10.9902 5.49935-.3449.41553-.661 1.49413-.7024 2.39686-.073 1.59628-.01 1.65236 2.4285 2.04526 5.4474.8789 7.7618 1.4411 7.7618 1.88538 0 .27492-5.7411.46486-14.0509.46486-10.1932 0-13.9564-.15308-13.7065-.5575.7162-1.15872 4.6739-2.41959 8.6304-2.7496 3.8726-.32294 4.1041-.40842 4.1041-1.51505 0-1.4397-2.4967-3.19734-6.761-4.75962-4.0607-1.48772-13.4288-1.59644-18.2772-.21213-4.6054 1.31496-8.4193 3.1762-9.3176 4.5471-.8307 1.26778-.5593 2.18959 1.38 4.6884 1.2238 1.57686 1.1695 2.73623-.1999 4.26116-.9264 1.03172-2.2709 1.48617-7.5629 2.5563-3.54.71584-6.6923 1.21621-7.0051 1.11195-.3129-.10431 1.4726-1.244 3.9678-2.53272 6.6653-3.44251 6.6011-3.38136 5.402-5.1435-.5417-.79612-1.2508-2.06716-1.5758-2.82457-.5678-1.32361-.7335-1.37709-4.268-1.37709-6.0468 0-11.4136 2.44377-15.7489 7.17134-2.2511 2.45475-2.5574 3.36659-1.4422 4.2922.3773.31313 1.3196 1.97447 2.0939 3.69184 1.9742 4.37854 2.2632 9.94073.7718 14.85113-.5922 1.94957-1.1588 3.54471-1.2591 3.54471-.1004 0-.2088-1.87687-.2411-4.17082-.1077-7.66185-2.3637-13.32895-6.1961-15.56466-1.1633-.67859-4.0304-1.72879-6.3715-2.33377-7.785-2.01172-18.3327-.44818-22.1795 3.28782-2.9764 2.89067-3.1183 7.29489-.3371 10.46248 1.5209 1.73229 1.8592 1.85908 10.2479 3.84081 5.9105 1.39623 11.1381 3.90997 13.4477 6.46637 1.5922 1.76244 1.8256 2.34388 1.8256 4.548 0 1.39002-.3546 3.21305-.788 4.05123-.4335.83818-.7152 1.56619-.626 1.61782.089.0516 1.6093.76307 3.3781 1.58097 1.7687.81789 4.4265 2.33211 5.9062 3.36493 1.4796 1.03283 2.7596 1.87787 2.8445 1.87787.085 0 .308-2.18854.4961-4.86342.8033-11.42745 3.488-18.35893 9.1967-23.74426 5.4687-5.15897 13.0821-8.45721 23.5697-10.21089 6.2725-1.0488 19.4741-.81589 26.3472.46486 10.1909 1.899 19.2744 6.11013 24.7195 11.46005 3.0856 3.03163 5.9386 8.33182 6.414 11.91534.1794 1.35257.3654 2.45921.4133 2.45921.048 0 2.3428-2.19711 5.0998-4.88246 8.4825-8.26196 13.879-10.69192 24.4796-11.02283 5.2781-.16475 7.3677-.01 11.0429.81945 21.4264 4.83378 36.728 17.10432 37.5907 30.14428.1918 2.90038-.017 4.72566-.9481 8.28264l-1.1942 4.56237 4.8071.31503c12.8389.84139 25.4127 6.93248 32.0146 15.50878 1.204 1.56414 2.3343 2.84384 2.5118 2.84384.1774 0 1.8964-.917 3.82-2.03781z"/>
</svg>